<svg width="58" height="68" viewBox="0 0 58 68" fill="none" xmlns="http://www.w3.org/2000/svg">
<path d="M15.8011 17C15.733 16.1477 15.4134 15.483 14.8423 15.0057C14.2798 14.5284 13.4233 14.2898 12.2727 14.2898C11.5398 14.2898 10.9389 14.3793 10.4702 14.5582C10.0099 14.7287 9.66903 14.9631 9.44744 15.2614C9.22585 15.5597 9.1108 15.9006 9.10227 16.2841C9.08523 16.5994 9.14063 16.8849 9.26847 17.1406C9.40483 17.3878 9.6179 17.6136 9.90767 17.8182C10.1974 18.0142 10.5682 18.1932 11.0199 18.3551C11.4716 18.517 12.0085 18.6619 12.6307 18.7898L14.7784 19.25C16.2273 19.5568 17.4673 19.9616 18.4986 20.4645C19.5298 20.9673 20.3736 21.5597 21.0298 22.2415C21.6861 22.9148 22.1676 23.6733 22.4744 24.517C22.7898 25.3608 22.9517 26.2812 22.9602 27.2784C22.9517 29 22.5213 30.4574 21.669 31.6506C20.8168 32.8438 19.598 33.7514 18.0128 34.3736C16.4361 34.9957 14.5398 35.3068 12.3239 35.3068C10.0483 35.3068 8.0625 34.9702 6.36648 34.2969C4.67898 33.6236 3.36648 32.5881 2.42898 31.1903C1.5 29.7841 1.03125 27.9858 1.02273 25.7955H7.77273C7.81534 26.5966 8.01563 27.2699 8.37358 27.8153C8.73153 28.3608 9.23438 28.7741 9.8821 29.0554C10.5384 29.3366 11.3182 29.4773 12.2216 29.4773C12.9801 29.4773 13.6151 29.3835 14.1264 29.196C14.6378 29.0085 15.0256 28.7486 15.2898 28.4162C15.554 28.0838 15.6903 27.7045 15.6989 27.2784C15.6903 26.8778 15.5582 26.5284 15.3026 26.2301C15.0554 25.9233 14.6463 25.6506 14.0753 25.4119C13.5043 25.1648 12.733 24.9347 11.7614 24.7216L9.15341 24.1591C6.83523 23.6562 5.0071 22.8168 3.66903 21.6406C2.33949 20.456 1.67898 18.8409 1.6875 16.7955C1.67898 15.1335 2.12216 13.6804 3.01705 12.4361C3.92045 11.1832 5.16903 10.2074 6.76278 9.50852C8.36506 8.80966 10.2017 8.46023 12.2727 8.46023C14.3864 8.46023 16.2145 8.81392 17.7571 9.52131C19.2997 10.2287 20.4886 11.2259 21.3239 12.5128C22.1676 13.7912 22.5938 15.2869 22.6023 17H15.8011Z" fill="black"></path>
<path d="M55.3409 30.8182V57H49.4091L39.9489 43.2443H39.7955V57H32.6875V30.8182H38.7216L48.0284 44.5227H48.233V30.8182H55.3409Z" fill="black"></path>
<line x1="39.3956" y1="0.549787" x2="13.3956" y2="66.5498" stroke="black" stroke-width="3"></line>
</svg>
